<?xml version="1.0" encoding="utf-8"?>
<!-- Svg Vector Icons : http://www.onlinewebfonts.com/icon -->
<!DOCTYPE svg PUBLIC "-//W3C//DTD SVG 1.1//EN" "http://www.w3.org/Graphics/SVG/1.1/DTD/svg11.dtd">
<svg xmlns="http://www.w3.org/2000/svg" xmlns:xlink="http://www.w3.org/1999/xlink" version="1.1" id="Layer_1" x="0px" y="0px" width="250" height="100" viewBox="0 0 612 250" enable-background="new 0 0 512 512" xml:space="preserve"> 
 
<g transform="translate(305 490) rotate(-135 0 0)"> 
<path fill="#009ACD" d="M175.206,484.601l293.993-293.985c1.792-1.799,3.337-3.742,4.672-5.786c3.72-4.785,6.058-10.729,6.073-17.27  L479.91,63.493c0.019-15.609-12.607-28.233-28.216-28.224l-104.05-0.009c-6.568,0-12.503,2.317-17.295,6.057  c-2.036,1.345-3.986,2.89-5.778,4.681L30.596,339.991c-14.047,14.048-14.063,36.802,0,50.848l93.763,93.762  C138.385,498.63,161.156,498.648,175.206,484.601z M373.438,100.444c11.395-11.412,29.898-11.412,41.312,0  c11.413,11.414,11.413,29.912,0,41.325c-11.413,11.403-29.917,11.403-41.312,0C362.026,130.355,362.026,111.857,373.438,100.444z"/> 
 
</g> 
 
</svg>